<svg xmlns="http://www.w3.org/2000/svg" viewBox="0 0 512 512" role="img" aria-label="Kogarah Term Diary"><title>Kogarah Term Diary</title><rect width="512" height="512" fill="#0E1A2B"/><circle cx="168.6" cy="82.8" r="2.7" fill="#F5EAD4" opacity="0.42"/><circle cx="54.7" cy="297.1" r="2.3" fill="#D4A253" opacity="0.32"/><circle cx="215.4" cy="127.4" r="2.3" fill="#D4A253" opacity="0.53"/><circle cx="69.4" cy="118.7" r="2.7" fill="#D4A253" opacity="0.32"/><circle cx="298.4" cy="32.6" r="1.5" fill="#F5EAD4" opacity="0.43"/><circle cx="151.6" cy="79.6" r="1.3" fill="#D4A253" opacity="0.46"/><circle cx="346.3" cy="59.1" r="2.3" fill="#AFC2D6" opacity="0.40"/><circle cx="279.7" cy="39.1" r="1.3" fill="#D4A253" opacity="0.44"/><circle cx="271.7" cy="393.5" r="2.0" fill="#D4A253" opacity="0.43"/><circle cx="156.7" cy="402.0" r="2.7" fill="#AFC2D6" opacity="0.32"/><circle cx="261.9" cy="89.8" r="1.7" fill="#F5EAD4" opacity="0.34"/><circle cx="27.4" cy="339.4" r="2.3" fill="#D4A253" opacity="0.55"/><circle cx="295.6" cy="234.3" r="1.7" fill="#D4A253" opacity="0.49"/><circle cx="38.1" cy="355.9" r="2.7" fill="#D4A253" opacity="0.49"/><circle cx="229.0" cy="363.4" r="2.7" fill="#D4A253" opacity="0.56"/><circle cx="116.2" cy="150.6" r="2.7" fill="#D4A253" opacity="0.41"/><circle cx="440.2" cy="48.0" r="2.0" fill="#D4A253" opacity="0.38"/><circle cx="75.9" cy="221.5" r="2.3" fill="#D4A253" opacity="0.42"/><circle cx="186.0" cy="446.6" r="1.5" fill="#F5EAD4" opacity="0.26"/><circle cx="123.1" cy="123.7" r="2.0" fill="#AFC2D6" opacity="0.35"/><circle cx="147.8" cy="80.3" r="2.3" fill="#D4A253" opacity="0.46"/><circle cx="480.7" cy="350.5" r="2.3" fill="#AFC2D6" opacity="0.48"/><circle cx="374.9" cy="234.5" r="2.7" fill="#AFC2D6" opacity="0.41"/><circle cx="205.9" cy="59.4" r="2.7" fill="#D4A253" opacity="0.35"/><circle cx="496.4" cy="226.6" r="1.3" fill="#D4A253" opacity="0.31"/><circle cx="8.1" cy="83.0" r="1.3" fill="#AFC2D6" opacity="0.47"/><circle cx="42.9" cy="111.1" r="2.0" fill="#F5EAD4" opacity="0.28"/><circle cx="429.1" cy="500.6" r="2.0" fill="#D4A253" opacity="0.39"/><circle cx="79.5" cy="379.8" r="2.7" fill="#D4A253" opacity="0.53"/><circle cx="88.1" cy="19.5" r="2.3" fill="#D4A253" opacity="0.49"/><circle cx="461.4" cy="384.0" r="1.7" fill="#AFC2D6" opacity="0.54"/><circle cx="353.3" cy="137.5" r="1.7" fill="#AFC2D6" opacity="0.40"/><circle cx="118.5" cy="276.6" r="2.3" fill="#D4A253" opacity="0.36"/><circle cx="410.5" cy="496.5" r="1.5" fill="#AFC2D6" opacity="0.53"/><circle cx="375.0" cy="120.5" r="2.3" fill="#D4A253" opacity="0.50"/><circle cx="498.8" cy="399.9" r="2.0" fill="#D4A253" opacity="0.49"/><circle cx="482.4" cy="229.8" r="2.7" fill="#AFC2D6" opacity="0.57"/><circle cx="188.9" cy="117.3" r="1.5" fill="#D4A253" opacity="0.39"/><circle cx="247.4" cy="496.7" r="2.3" fill="#AFC2D6" opacity="0.43"/><circle cx="331.9" cy="404.6" r="1.3" fill="#AFC2D6" opacity="0.33"/><circle cx="448.9" cy="223.2" r="2.7" fill="#D4A253" opacity="0.52"/><circle cx="489.9" cy="204.3" r="2.0" fill="#AFC2D6" opacity="0.32"/><circle cx="86.8" cy="500.6" r="1.3" fill="#F5EAD4" opacity="0.44"/><circle cx="408.0" cy="80.5" r="2.3" fill="#AFC2D6" opacity="0.48"/><circle cx="15.1" cy="489.6" r="2.7" fill="#F5EAD4" opacity="0.40"/><circle cx="77.1" cy="497.3" r="1.5" fill="#AFC2D6" opacity="0.36"/><circle cx="132.9" cy="153.3" r="1.5" fill="#AFC2D6" opacity="0.39"/><circle cx="278.0" cy="421.8" r="1.3" fill="#AFC2D6" opacity="0.40"/><circle cx="235.2" cy="297.3" r="2.0" fill="#AFC2D6" opacity="0.55"/><rect x="158" y="120" width="17" height="62" rx="8" fill="#D4A253"/><rect x="337" y="120" width="17" height="62" rx="8" fill="#D4A253"/><rect x="92" y="168" width="328" height="256" rx="20" fill="none" stroke="#D4A253" stroke-width="15"/><line x1="92" y1="238" x2="420" y2="238" stroke="#D4A253" stroke-width="13"/><circle cx="141" cy="290" r="9.5" fill="#D4A253" opacity="0.85"/><circle cx="219" cy="290" r="9.5" fill="#D4A253" opacity="0.85"/><circle cx="297" cy="290" r="9.5" fill="#D4A253" opacity="0.85"/><circle cx="375" cy="290" r="9.5" fill="#D4A253" opacity="0.85"/><circle cx="141" cy="342" r="9.5" fill="#D4A253" opacity="0.85"/><circle cx="219" cy="342" r="9.5" fill="#D4A253" opacity="0.85"/><path d="M297.00 312.00 L303.93 332.46 L325.53 332.73 L308.21 345.64 L314.63 366.27 L297.00 353.79 L279.37 366.27 L285.79 345.64 L268.47 332.73 L290.07 332.46 Z" fill="#F5EAD4"/><circle cx="375" cy="342" r="9.5" fill="#D4A253" opacity="0.85"/><circle cx="141" cy="394" r="9.5" fill="#D4A253" opacity="0.85"/><circle cx="219" cy="394" r="9.5" fill="#D4A253" opacity="0.85"/><circle cx="297" cy="394" r="9.5" fill="#D4A253" opacity="0.85"/><circle cx="375" cy="394" r="9.5" fill="#D4A253" opacity="0.85"/></svg>
